#!OML:ASF F:\VICON\USERDATA\INSTALL\rory3\rory3.ASF
:FULLY-SPECIFIED
:DEGREES
744
root -0.114143 16.2928 -1.02376 -160.451 -3.46555 177.231
lowerback -16.1118 0.38044 -2.07531
upperback -7.61819 -0.366884 -0.788055
thorax 0.930912 -0.659399 0.277887
lowerneck -14.5626 1.78094 -2.19173
upperneck 41.9447 -4.58828 4.6988
head 18.3946 -3.46853 1.09932
rclavicle 1.39429e-014 8.24956e-015
rhumerus -49.6621 11.2795 -88.6943
rradius 20.7669
rwrist -9.69616
rhand 1.49089 12.2594
rfingers 7.12502
rthumb 27.0176 -15.8283
lclavicle 1.39429e-014 8.24956e-015
lhumerus -53.8207 16.1531 65.7541
lradius 30.3348
lwrist 0.597071
lhand -1.27861 18.6445
lfingers 7.12502
lthumb 24.3651 47.1156
rfemur -23.1543 -20.0326 24.8704
rtibia 59.9662
rfoot 32.1094 -24.0888
rtoes 18.9494
lfemur -35.5809 0.54341 -34.6494
ltibia 42.3044
lfoot -36.1671 20.0373
ltoes 6.07586
745
root -0.131521 16.2933 -1.01458 -160.374 -3.94465 177.463
lowerback -16.0987 0.360315 -1.46571
upperback -7.58136 -0.465348 -0.807078
thorax 0.967502 -0.71747 -0.102533
lowerneck -14.671 1.75088 -2.23313
upperneck 41.8678 -4.60235 4.78328
head 18.3829 -3.45163 1.14738
rclavicle -2.2795e-014 -7.20594e-015
rhumerus -49.5664 11.5106 -88.9403
rradius 20.8596
rwrist -9.75133
rhand 1.20803 12.7133
rfingers 7.12502
rthumb 26.7469 -15.416
lclavicle -2.2795e-014 -7.20594e-015
lhumerus -53.7783 16.2171 65.602
lradius 30.1088
lwrist 0.386715
lhand -1.06536 18.306
lfingers 7.12502
lthumb 24.5696 46.7494
rfemur -23.1588 -20.7535 25.1447
rtibia 59.8934
rfoot 32.7656 -23.482
rtoes 18.0973
lfemur -35.6848 0.415995 -34.4079
ltibia 42.4094
lfoot -36.0631 19.9224
ltoes 6.00789
746
root -0.1253 16.295 -1.01007 -160.257 -3.98719 177.479
lowerback -16.1355 0.35341 -1.49357
upperback -7.57653 -0.469848 -0.847096
thorax 0.991482 -0.720485 -0.129989
lowerneck -14.7459 1.72158 -2.2141
upperneck 41.8838 -4.67678 4.82348
head 18.4204 -3.46994 1.14799
rclavicle 1.31664e-014 3.57812e-015
rhumerus -49.5332 11.4502 -88.9778
rradius 21.1871
rwrist -9.31124
rhand 1.50198 12.1885
rfingers 7.12502
rthumb 27.0282 -15.8975
lclavicle 1.31664e-014 3.57812e-015
lhumerus -53.7493 16.1313 65.5234
lradius 29.9972
lwrist 0.454404
lhand -0.90277 18.4134
lfingers 7.12502
lthumb 24.7254 46.8356
rfemur -23.2982 -20.719 25.271
rtibia 59.8564
rfoot 32.3417 -24.3674
rtoes 19.651
lfemur -35.8972 0.479171 -34.3857
ltibia 42.4742
lfoot -35.8494 20.0852
ltoes 5.02042
747
root -0.117321 16.2963 -1.00825 -160.359 -4.00879 177.656
lowerback -15.9803 0.374011 -1.38785
upperback -7.50919 -0.437679 -0.831361
thorax 0.981909 -0.697031 -0.166672
lowerneck -14.9367 1.67623 -2.18974
upperneck 41.9217 -4.74699 4.82439
head 18.5011 -3.48393 1.12982
rclavicle 2.43667e-015 -9.93923e-016
rhumerus -49.6479 11.7586 -89.3274
rradius 21.7997
rwrist -9.67062
rhand 1.92576 11.2903
rfingers 7.12502
rthumb 27.4336 -16.7321
lclavicle 2.43667e-015 -9.93923e-016
lhumerus -53.7249 16.2132 65.2938
lradius 29.7352
lwrist 0.305105
lhand -0.852608 18.3344
lfingers 7.12502
lthumb 24.7735 46.7499
rfemur -23.1699 -20.6312 25.5108
rtibia 59.7422
rfoot 32.0612 -24.5197
rtoes 19.1557
lfemur -35.9049 0.538638 -34.164
ltibia 42.5907
lfoot -35.698 20.4149
ltoes 3.80673
748
root -0.115986 16.2942 -1.00819 -160.303 -3.98759 177.45
lowerback -15.9963 0.363468 -1.57985
upperback -7.49384 -0.421584 -0.926608
thorax 1.00493 -0.686523 -0.155755
lowerneck -15.0599 1.68331 -2.10691
upperneck 41.9907 -4.75213 4.78069
head 18.5749 -3.47495 1.09195
rclavicle -4.3554e-015 -1.22998e-014
rhumerus -49.7948 12.2053 -89.8266
rradius 22.0746
rwrist -10.3254
rhand 1.71484 11.1875
rfingers 7.12502
rthumb 27.2318 -16.8667
lclavicle -4.3554e-015 -1.22998e-014
lhumerus -53.7399 16.1985 65.1682
lradius 29.408
lwrist 0.260963
lhand -1.08399 18.1361
lfingers 7.12502
lthumb 24.5517 46.582
rfemur -23.2456 -20.7502 25.3046
rtibia 59.7678
rfoot 32.0746 -24.0488
rtoes 17.6294
lfemur -35.919 0.566487 -34.4128
ltibia 42.5749
lfoot -35.5922 20.581
ltoes 3.00642
749
root -0.115473 16.2947 -1.00985 -160.368 -4.11105 177.703
lowerback -15.8588 0.40947 -1.27093
upperback -7.56151 -0.413513 -0.913319
thorax 0.862236 -0.69082 -0.312364
lowerneck -14.892 1.7422 -1.97096
upperneck 41.9935 -4.72086 4.75724
head 18.5248 -3.45515 1.06182
rclavicle -1.2563e-014 5.57218e-015
rhumerus -50.1072 12.6129 -90.4029
rradius 22.1986
rwrist -10.7466
rhand 1.33724 11.308
rfingers 7.12502
rthumb 26.8706 -16.8023
lclavicle -1.2563e-014 5.57218e-015
lhumerus -53.9107 16.094 64.958
lradius 29.1474
lwrist 0.0992821
lhand -1.19527 18.131
lfingers 7.12502
lthumb 24.445 46.5913
rfemur -23.1486 -20.8074 25.6083
rtibia 59.722
rfoot 32.1309 -23.9378
rtoes 16.5668
lfemur -35.8829 0.625358 -34.1312
ltibia 42.5843
lfoot -35.6152 20.5338
ltoes 3.20146
750
root -0.110092 16.2954 -1.01076 -160.317 -4.01203 177.463
lowerback -15.8559 0.412794 -1.58859
upperback -7.60219 -0.375268 -1.02078
thorax 0.81516 -0.671136 -0.238905
lowerneck -14.7616 1.79148 -1.84162
upperneck 41.9746 -4.69034 4.74761
head 18.4727 -3.42884 1.04041
rclavicle 1.08081e-014 -1.14301e-014
rhumerus -50.1944 12.7785 -90.7583
rradius 22.1829
rwrist -10.9973
rhand 1.07661 11.1579
rfingers 7.12502
rthumb 26.6212 -16.9906
lclavicle 1.08081e-014 -1.14301e-014
lhumerus -53.9968 15.8411 64.9756
lradius 29.0704
lwrist 0.157918
lhand -1.19468 18.5028
lfingers 7.12502
lthumb 24.4456 46.963
rfemur -23.2929 -20.8421 25.3931
rtibia 59.8092
rfoot 32.4161 -23.7458
rtoes 15.3609
lfemur -35.8664 0.755773 -34.4116
ltibia 42.4986
lfoot -35.6117 20.3111
ltoes 3.62036
751
root -0.108079 16.2981 -1.01017 -160.283 -3.99183 177.446
lowerback -15.8338 0.41856 -1.64123
upperback -7.60696 -0.361034 -1.02788
thorax 0.798092 -0.662945 -0.214028
lowerneck -14.7991 1.80699 -1.74577
upperneck 41.9826 -4.62935 4.6246
head 18.4765 -3.40005 0.977508
rclavicle -9.00122e-015 7.52897e-015
rhumerus -50.3352 13.186 -91.1823
rradius 22.3681
rwrist -11.3021
rhand 0.73392 11.137
rfingers 7.12502
rthumb 26.2932 -17.0608
lclavicle -9.00122e-015 7.52897e-015
lhumerus -54.0498 15.8015 64.964
lradius 29.0502
lwrist -0.00380621
lhand -1.01159 18.9978
lfingers 7.12502
lthumb 24.6211 47.4342
rfemur -23.3736 -20.8902 25.3982
rtibia 59.8388
rfoot 32.3999 -24.089
rtoes 15.995
lfemur -35.895 0.774499 -34.4193
ltibia 42.4624
lfoot -35.5551 20.331
ltoes 3.83928
752
root -0.106325 16.2997 -1.01045 -160.22 -3.98636 177.509
lowerback -15.9266 0.458982 -1.60022
upperback -7.58245 -0.309318 -1.03516
thorax 0.872581 -0.638232 -0.237757
lowerneck -14.73 1.7758 -1.66828
upperneck 41.8813 -4.62584 4.54134
head 18.3899 -3.38798 0.928625
rclavicle 2.8948e-015 -4.52235e-015
rhumerus -50.5215 13.6115 -91.6655
rradius 22.6293
rwrist -11.6948
rhand 0.204947 11.4405
rfingers 7.12502
rthumb 25.7867 -16.8319
lclavicle 2.8948e-015 -4.52235e-015
lhumerus -54.0226 15.6059 65.0898
lradius 29.0488
lwrist -0.0442771
lhand -1.01396 19.0421
lfingers 7.12502
lthumb 24.6188 47.4789
rfemur -23.4787 -20.9718 25.4874
rtibia 59.8818
rfoot 32.2949 -23.8257
rtoes 15.3663
lfemur -35.9446 0.909345 -34.3707
ltibia 42.3832
lfoot -35.5024 20.1518
ltoes 3.85784
753
root -0.108337 16.3007 -1.01323 -160.104 -3.93709 177.476
lowerback -16.0629 0.494185 -1.598
upperback -7.65407 -0.283004 -1.06945
thorax 0.867509 -0.635365 -0.271407
lowerneck -14.3958 1.78976 -1.72813
upperneck 41.7574 -4.58859 4.56269
head 18.2222 -3.39076 0.959781
rclavicle 8.33964e-016 9.69075e-015
rhumerus -50.9841 14.2909 -92.4031
rradius 22.9676
rwrist -12.4409
rhand -0.467546 11.7349
rfingers 7.12502
rthumb 25.1425 -16.6294
lclavicle 8.33964e-016 9.69075e-015
lhumerus -54.076 15.2081 65.3672
lradius 29.0327
lwrist 0.203163
lhand -1.1804 18.9315
lfingers 7.12502
lthumb 24.4593 47.3899
rfemur -23.5848 -21.0606 25.4423
rtibia 59.9053
rfoot 32.26 -23.3172
rtoes 14.3686
lfemur -36.0158 0.849539 -34.4127
ltibia 42.3311
lfoot -35.6878 19.9458
ltoes 4.55092
754
root -0.108834 16.2973 -1.01116 -160.046 -3.88886 177.259
lowerback -15.9329 0.526999 -1.75417
upperback -7.87444 -0.266882 -1.2006
thorax 0.563209 -0.642999 -0.314219
lowerneck -13.8123 1.82307 -1.68077
upperneck 41.6497 -4.62628 4.60516
head 18.0028 -3.42681 0.964544
rclavicle 8.61297e-015 -3.80176e-015
rhumerus -51.7284 14.8296 -93.2163
rradius 23.3922
rwrist -13.1783
rhand -0.672878 11.5216
rfingers 7.12502
rthumb 24.9457 -16.8702
lclavicle 8.61297e-015 -3.80176e-015
lhumerus -54.3257 14.1477 66.0616
lradius 29.2235
lwrist 0.986887
lhand -1.66902 18.8888
lfingers 7.12502
lthumb 23.9908 47.4096
rfemur -23.6238 -21.2126 25.1723
rtibia 59.9508
rfoot 31.8772 -23.7594
rtoes 15.4905
lfemur -36.0172 0.863413 -34.6984
ltibia 42.2639
lfoot -35.4486 20.2187
ltoes 4.1834
